<?xml version="1.0" encoding="UTF-8"?>
<svg xmlns="http://www.w3.org/2000/svg" xmlns:xlink="http://www.w3.org/1999/xlink" width="15pt" height="15pt" viewBox="0 0 15 15" version="1.1">
<g id="surface1">
<path style=" stroke:none;fill-rule:nonzero;fill:rgb(37.647059%,49.019608%,54.509804%);fill-opacity:1;" d="M 13.125 1.875 L 13.125 6.4375 C 12.738281 6.242188 12.289062 6.199219 11.875 6.320312 L 11.875 3.125 L 1.25 3.125 L 1.25 10 C 1.25 10.34375 1.53125 10.625 1.875 10.625 L 8.007812 10.625 C 7.8125 11.019531 7.675781 11.4375 7.59375 11.875 L 1.875 11.875 C 0.84375 11.875 0 11.03125 0 10 L 0 1.875 C 0 0.84375 0.84375 0 1.875 0 L 11.25 0 C 12.28125 0 13.125 0.84375 13.125 1.875 Z M 13.125 1.875 "/>
<path style=" stroke:none;fill-rule:nonzero;fill:rgb(100%,100%,100%);fill-opacity:1;" d="M 11.875 3.125 L 11.875 6.320312 C 11.78125 6.34375 11.6875 6.382812 11.59375 6.425781 C 11.007812 6.707031 10.625 7.320312 10.625 7.96875 L 10.625 8.179688 C 9.480469 8.648438 8.542969 9.523438 8.007812 10.625 L 1.875 10.625 C 1.53125 10.625 1.25 10.34375 1.25 10 L 1.25 3.125 Z M 11.875 3.125 "/>
<path style=" stroke:none;fill-rule:nonzero;fill:rgb(32.941176%,42.745098%,47.45098%);fill-opacity:1;" d="M 6.5625 0 L 1.875 0 C 0.84375 0 0 0.84375 0 1.875 L 0 10 C 0 11.03125 0.84375 11.875 1.875 11.875 L 6.5625 11.875 L 6.5625 10.625 L 1.875 10.625 C 1.53125 10.625 1.25 10.34375 1.25 10 L 1.25 3.125 L 6.5625 3.125 Z M 6.5625 0 "/>
<path style=" stroke:none;fill-rule:nonzero;fill:rgb(87.058824%,87.058824%,87.058824%);fill-opacity:1;" d="M 6.5625 3.125 L 1.25 3.125 L 1.25 10 C 1.25 10.34375 1.53125 10.625 1.875 10.625 L 6.5625 10.625 Z M 6.5625 3.125 "/>
<path style=" stroke:none;fill-rule:nonzero;fill:rgb(29.803922%,68.627451%,31.372549%);fill-opacity:1;" d="M 14.820312 9.320312 L 12.632812 7.601562 C 12.492188 7.488281 12.300781 7.46875 12.140625 7.546875 C 11.976562 7.625 11.875 7.789062 11.875 7.96875 L 11.875 9.117188 C 10.105469 9.417969 8.75 10.957031 8.75 12.8125 L 8.75 14.375 C 8.75 14.71875 9.03125 15 9.375 15 C 9.71875 15 10 14.71875 10 14.375 L 10 12.8125 C 10 11.652344 10.800781 10.679688 11.875 10.402344 L 11.875 11.40625 C 11.875 11.585938 11.976562 11.75 12.140625 11.828125 C 12.203125 11.859375 12.273438 11.875 12.34375 11.875 C 12.445312 11.875 12.546875 11.839844 12.632812 11.773438 L 14.820312 10.054688 C 14.933594 9.96875 15 9.832031 15 9.6875 C 15 9.542969 14.933594 9.40625 14.820312 9.320312 Z M 14.820312 9.320312 "/>
<path style=" stroke:none;fill-rule:nonzero;fill:rgb(25.882353%,59.607843%,27.45098%);fill-opacity:1;" d="M 14.996094 9.636719 L 10.515625 9.636719 C 9.457031 10.296875 8.75 11.472656 8.75 12.8125 L 8.75 14.375 C 8.75 14.71875 9.03125 15 9.375 15 C 9.71875 15 10 14.71875 10 14.375 L 10 12.8125 C 10 11.652344 10.800781 10.679688 11.875 10.402344 L 11.875 11.40625 C 11.875 11.585938 11.976562 11.75 12.140625 11.828125 C 12.203125 11.859375 12.273438 11.875 12.34375 11.875 C 12.445312 11.875 12.546875 11.839844 12.632812 11.773438 L 14.820312 10.054688 C 14.933594 9.96875 15 9.832031 15 9.6875 C 15 9.671875 15 9.652344 14.996094 9.636719 Z M 14.996094 9.636719 "/>
</g>
</svg>
